<mxfile host="app.diagrams.net" modified="2020-12-13T14:04:23.401Z" agent="5.0 (Windows NT 10.0; Win64; x64) AppleWebKit/537.36 (KHTML, like Gecko) Chrome/87.0.4280.88 Safari/537.36" etag="P_TeJG4noprvNAsWRfgB" version="14.0.1" type="github">
  <diagram id="C5RBs43oDa-KdzZeNtuy" name="Page-1">
    <mxGraphModel dx="539" dy="301" grid="0" gridSize="10" guides="1" tooltips="1" connect="1" arrows="1" fold="1" page="1" pageScale="1" pageWidth="827" pageHeight="1169" math="0" shadow="0">
      <root>
        <mxCell id="WIyWlLk6GJQsqaUBKTNV-0" />
        <mxCell id="WIyWlLk6GJQsqaUBKTNV-1" parent="WIyWlLk6GJQsqaUBKTNV-0" />
        <mxCell id="ag0E25g7r8WwaZ3tjXVX-0" value="NBAStar" style="rounded=1;whiteSpace=wrap;html=1;fontSize=12;glass=0;strokeWidth=1;shadow=0;fillColor=none;strokeColor=none;" vertex="1" parent="WIyWlLk6GJQsqaUBKTNV-1">
          <mxGeometry x="102" y="280" width="120" height="40" as="geometry" />
        </mxCell>
        <mxCell id="ag0E25g7r8WwaZ3tjXVX-11" style="edgeStyle=none;rounded=0;orthogonalLoop=1;jettySize=auto;html=1;exitX=0.5;exitY=1;exitDx=0;exitDy=0;startArrow=classic;startFill=1;" edge="1" parent="WIyWlLk6GJQsqaUBKTNV-1" source="ag0E25g7r8WwaZ3tjXVX-3" target="ag0E25g7r8WwaZ3tjXVX-10">
          <mxGeometry relative="1" as="geometry" />
        </mxCell>
        <mxCell id="ag0E25g7r8WwaZ3tjXVX-23" style="edgeStyle=none;rounded=0;orthogonalLoop=1;jettySize=auto;html=1;exitX=0.75;exitY=1;exitDx=0;exitDy=0;startArrow=none;startFill=0;" edge="1" parent="WIyWlLk6GJQsqaUBKTNV-1" source="ag0E25g7r8WwaZ3tjXVX-3" target="ag0E25g7r8WwaZ3tjXVX-22">
          <mxGeometry relative="1" as="geometry" />
        </mxCell>
        <mxCell id="ag0E25g7r8WwaZ3tjXVX-3" value="&lt;span&gt;Django&lt;/span&gt;" style="rounded=1;whiteSpace=wrap;html=1;fontSize=12;glass=0;strokeWidth=1;shadow=0;" vertex="1" parent="WIyWlLk6GJQsqaUBKTNV-1">
          <mxGeometry x="250" y="320" width="100" height="40" as="geometry" />
        </mxCell>
        <mxCell id="ag0E25g7r8WwaZ3tjXVX-4" value="robot case" style="rounded=1;whiteSpace=wrap;html=1;fontSize=12;glass=0;strokeWidth=1;shadow=0;" vertex="1" parent="WIyWlLk6GJQsqaUBKTNV-1">
          <mxGeometry x="154" y="460" width="80" height="30" as="geometry" />
        </mxCell>
        <mxCell id="ag0E25g7r8WwaZ3tjXVX-7" value="robot case" style="rounded=1;whiteSpace=wrap;html=1;fontSize=12;glass=0;strokeWidth=1;shadow=0;" vertex="1" parent="WIyWlLk6GJQsqaUBKTNV-1">
          <mxGeometry x="274" y="460" width="80" height="30" as="geometry" />
        </mxCell>
        <mxCell id="ag0E25g7r8WwaZ3tjXVX-12" style="rounded=0;orthogonalLoop=1;jettySize=auto;html=1;exitX=0.25;exitY=1;exitDx=0;exitDy=0;entryX=0.5;entryY=0;entryDx=0;entryDy=0;startArrow=classic;startFill=1;" edge="1" parent="WIyWlLk6GJQsqaUBKTNV-1" source="ag0E25g7r8WwaZ3tjXVX-10" target="ag0E25g7r8WwaZ3tjXVX-4">
          <mxGeometry relative="1" as="geometry" />
        </mxCell>
        <mxCell id="ag0E25g7r8WwaZ3tjXVX-13" style="edgeStyle=none;rounded=0;orthogonalLoop=1;jettySize=auto;html=1;exitX=0.75;exitY=1;exitDx=0;exitDy=0;entryX=0.5;entryY=0;entryDx=0;entryDy=0;startArrow=classic;startFill=1;" edge="1" parent="WIyWlLk6GJQsqaUBKTNV-1" source="ag0E25g7r8WwaZ3tjXVX-10" target="ag0E25g7r8WwaZ3tjXVX-7">
          <mxGeometry relative="1" as="geometry" />
        </mxCell>
        <mxCell id="ag0E25g7r8WwaZ3tjXVX-10" value="rabbitmq" style="rounded=1;whiteSpace=wrap;html=1;fontSize=12;glass=0;strokeWidth=1;shadow=0;" vertex="1" parent="WIyWlLk6GJQsqaUBKTNV-1">
          <mxGeometry x="214" y="390" width="80" height="30" as="geometry" />
        </mxCell>
        <mxCell id="ag0E25g7r8WwaZ3tjXVX-19" value="nba_queen" style="rounded=1;whiteSpace=wrap;html=1;fontSize=12;glass=0;strokeWidth=1;shadow=0;fillColor=none;strokeColor=none;" vertex="1" parent="WIyWlLk6GJQsqaUBKTNV-1">
          <mxGeometry x="430" y="320" width="60" height="30" as="geometry" />
        </mxCell>
        <mxCell id="ag0E25g7r8WwaZ3tjXVX-20" value="nba_bee" style="rounded=1;whiteSpace=wrap;html=1;fontSize=12;glass=0;strokeWidth=1;shadow=0;fillColor=none;strokeColor=none;" vertex="1" parent="WIyWlLk6GJQsqaUBKTNV-1">
          <mxGeometry x="430" y="460" width="60" height="30" as="geometry" />
        </mxCell>
        <mxCell id="ag0E25g7r8WwaZ3tjXVX-22" value="mysql" style="strokeWidth=2;html=1;shape=mxgraph.flowchart.database;whiteSpace=wrap;fillColor=none;" vertex="1" parent="WIyWlLk6GJQsqaUBKTNV-1">
          <mxGeometry x="380" y="390" width="50" height="50" as="geometry" />
        </mxCell>
      </root>
    </mxGraphModel>
  </diagram>
</mxfile>
